<?xml version="1.0" encoding="utf-8"?>
<!-- Generator: Adobe Illustrator 23.0.6, SVG Export Plug-In . SVG Version: 6.00 Build 0)  -->
<svg version="1.1" id="Layer_1" xmlns="http://www.w3.org/2000/svg" xmlns:xlink="http://www.w3.org/1999/xlink" x="0px" y="0px"
	 viewBox="0 0 529.2 517.6" style="enable-background:new 0 0 529.2 517.6;" xml:space="preserve">
<style type="text/css">
	.st0{fill:#FFFFFF;}
	.st1{fill:#AC87CF;}
</style>
<g>
	<g>
		<g>
			<path class="st0" d="M411.8,363.9c-26-40-48.4-77.4-66.6-111.1c-33.5-62.2-50.5-107.8-50.5-135.5C294.7,52.6,347.3,0,411.9,0
				s117.2,52.6,117.2,117.3c0,55.2-70.7,170.5-104.7,225.8C419.4,351.4,415.1,358.4,411.8,363.9z"/>
			<path class="st1" d="M411.9,14.6c27.4,0,53.2,10.7,72.6,30.1s30.1,45.2,30.1,72.6c0,48.9-63.4,152.3-93.9,201.9
				c-3.4,5.5-6.4,10.4-9,14.7c-22.3-34.5-41.5-66.7-57.3-95.9c-13.5-25.2-24.2-47.7-31.7-66.8c-8.8-22.7-13.4-40.8-13.4-53.9
				c0-27.4,10.7-53.2,30.1-72.6S384.6,14.6,411.9,14.6 M411.9,8.6c-60,0-108.6,48.6-108.6,108.7c0,60,86.1,193.4,108.6,227.9
				c19.9-34.4,108.6-167.9,108.6-227.9C520.5,57.3,471.9,8.6,411.9,8.6L411.9,8.6z"/>
		</g>
		<g>
			<path class="st0" d="M329.1,415.2c-29.5-45.3-54.8-87.6-75.4-125.9c-38-70.5-57.2-122.1-57.2-153.5
				c0-73.3,59.6-132.9,132.8-132.9s132.8,59.6,132.8,132.9c0,62.6-80.1,193.1-118.6,255.9C337.7,401,332.8,408.9,329.1,415.2z"/>
			<path class="st1" d="M329.3,22.4c30.5,0,59.3,11.9,80.9,33.5c21.6,21.6,33.5,50.4,33.5,81c0,54.5-70.7,169.8-104.7,225.1
				c-3.8,6.2-7.2,11.6-10,16.4c-24.9-38.4-46.3-74.4-63.9-106.9c-15.1-28.1-27-53.1-35.4-74.5c-9.8-25.3-14.9-45.5-14.9-60.1
				c0-30.6,11.9-59.3,33.5-81S298.8,22.4,329.3,22.4 M329.3,15.8c-66.9,0-121.1,54.2-121.1,121.1c0,66.9,96,215.7,121.1,254
				c22.2-38.4,121.1-187.2,121.1-254C450.3,70,396.1,15.8,329.3,15.8L329.3,15.8z"/>
		</g>
		<g>
			<path class="st0" d="M246.5,466.4c-32.9-50.6-61.3-97.9-84.2-140.7c-42.4-78.7-64-136.4-64-171.5c0-81.9,66.6-148.5,148.4-148.5
				S395,72.3,395,154.2c0,69.9-89.5,215.8-132.5,285.9C256,450.6,250.6,459.4,246.5,466.4z"/>
			<path class="st1" d="M246.6,30.3c33.7,0,65.4,13.1,89.2,37s37,55.5,37,89.3c0,60.2-78,187.2-115.5,248.3c-4.2,6.8-7.9,12.8-11,18
				c-27.4-42.4-51.1-82-70.4-117.9c-16.7-31-29.8-58.6-39-82.2c-10.9-27.9-16.4-50.2-16.4-66.2c0-33.7,13.1-65.4,37-89.3
				S212.9,30.3,246.6,30.3 M246.6,23c-73.7,0-133.5,59.8-133.5,133.6c0,73.7,105.9,237.9,133.5,280.2
				c24.4-42.3,133.5-206.5,133.5-280.2C380.1,82.7,320.4,23,246.6,23L246.6,23z"/>
		</g>
		<g>
			<path class="st0" d="M163.8,517.6c-36.4-55.9-67.7-108.2-93.1-155.4C23.8,275.2,0,211.5,0,172.7c0-90.5,73.5-164,164-164
				s164,73.5,164,164c0,77.3-98.9,238.4-146.5,315.9C174.3,500.1,168.3,509.9,163.8,517.6z"/>
			<path class="st1" d="M164,38.1c36.8,0,71.5,14.4,97.5,40.4s40.4,60.7,40.4,97.6c0,65.8-85.3,204.7-126.3,271.4
				c-4.6,7.5-8.7,14-12,19.7c-30-46.4-55.8-89.7-77-128.9c-18.2-33.9-32.6-64.1-42.7-89.8c-11.9-30.5-18-54.9-18-72.4
				c0-36.9,14.4-71.6,40.4-97.6S127.1,38.1,164,38.1 M164,30.1c-80.6,0-146,65.4-146,146.1c0,80.6,115.8,260.1,146,306.3
				c26.7-46.3,146-225.7,146-306.3C309.9,95.5,244.6,30.1,164,30.1L164,30.1z"/>
		</g>
	</g>
</g>
</svg>
